# xmcd
#
# Track frame offsets: 
#        150
#        24282
#        51033
#        70351
#        90281
#        103572
#        119983
#        142335
#        166798
#        198818
#
# Disc length: 2983 seconds
#
# Revision: 2
# Processed by: cddbd v1.5.2PL0 Copyright (c) Steve Scherf et al.
# Submitted via: ExactAudioCopy v1.3
#
DISCID=850ba50a
DTITLE=Ryan McGarvey - Forward in Reverse
DYEAR=2007
DGENRE=Blues Rock
TTITLE0=Right In All The Wrong Ways
TTITLE1=Joyride
TTITLE2=The One That Got Away
TTITLE3=Watch Yourself
TTITLE4=Texas Special
TTITLE5=Someone Like You
TTITLE6=Second Time Around
TTITLE7=Cryin' Over You
TTITLE8=Mystic Dream
TTITLE9=Blue Eyed Angel Blues
EXTD=YEAR: 2006
EXTT0=
EXTT1=
EXTT2=
EXTT3=
EXTT4=
EXTT5=
EXTT6=
EXTT7=
EXTT8=
EXTT9=
PLAYORDER=
